<?xml version="1.0" standalone="no"?>
<!DOCTYPE svg PUBLIC "-//W3C//DTD SVG 20010904//EN"
 "http://www.w3.org/TR/2001/REC-SVG-20010904/DTD/svg10.dtd">
<svg version="1.0" xmlns="http://www.w3.org/2000/svg"
 width="1080.000000pt" height="1080.000000pt" viewBox="0 0 1080.000000 1080.000000"
 preserveAspectRatio="xMidYMid meet">

<g transform="translate(0.000000,1080.000000) scale(0.100000,-0.100000)"
fill="#000000" stroke="none">
<path d="M0 5400 l0 -5400 5400 0 5400 0 0 5400 0 5400 -5400 0 -5400 0 0
-5400z m10168 4774 l22 -15 0 -2252 c0 -1402 -4 -2258 -10 -2267 -8 -13 -273
-15 -2266 -18 -2092 -2 -2259 -1 -2276 14 -17 17 -18 97 -18 2266 0 2235 0
2248 20 2268 20 20 33 20 2263 20 2013 0 2245 -2 2265 -16z m-4958 -2364 l0
-2280 -2280 0 -2280 0 0 2280 0 2280 2280 0 2280 0 0 -2280z m4960 -4875 l0
-2325 -2325 0 -2325 0 0 2325 0 2325 2325 0 2325 0 0 -2325z m-5006 2227 c15
-17 16 -184 14 -2276 -3 -1993 -5 -2258 -18 -2266 -9 -6 -864 -10 -2263 -10
-2234 0 -2247 0 -2267 20 -20 20 -20 33 -20 2265 0 2232 0 2245 20 2265 20 20
33 20 2268 20 2169 0 2249 -1 2266 -18z"/>
<path d="M1700 9850 c-19 -12 77 -13 135 -1 35 8 29 9 -40 10 -44 0 -87 -4
-95 -9z"/>
<path d="M1948 9853 c6 -2 18 -2 25 0 6 3 1 5 -13 5 -14 0 -19 -2 -12 -5z"/>
<path d="M2008 9853 c7 -3 16 -2 19 1 4 3 -2 6 -13 5 -11 0 -14 -3 -6 -6z"/>
<path d="M2058 9853 c7 -3 16 -2 19 1 4 3 -2 6 -13 5 -11 0 -14 -3 -6 -6z"/>
<path d="M2108 9853 c6 -2 18 -2 25 0 6 3 1 5 -13 5 -14 0 -19 -2 -12 -5z"/>
<path d="M2168 9853 c7 -3 16 -2 19 1 4 3 -2 6 -13 5 -11 0 -14 -3 -6 -6z"/>
<path d="M2218 9853 c7 -3 16 -2 19 1 4 3 -2 6 -13 5 -11 0 -14 -3 -6 -6z"/>
<path d="M2278 9853 c7 -3 16 -2 19 1 4 3 -2 6 -13 5 -11 0 -14 -3 -6 -6z"/>
<path d="M2328 9853 c7 -3 16 -2 19 1 4 3 -2 6 -13 5 -11 0 -14 -3 -6 -6z"/>
<path d="M2773 9853 c9 -2 25 -2 35 0 9 3 1 5 -18 5 -19 0 -27 -2 -17 -5z"/>
<path d="M2933 9853 c53 -2 141 -2 195 0 53 1 9 3 -98 3 -107 0 -151 -2 -97
-3z"/>
<path d="M3408 9853 c12 -2 32 -2 45 0 12 2 2 4 -23 4 -25 0 -35 -2 -22 -4z"/>
<path d="M3633 9853 c9 -2 25 -2 35 0 9 3 1 5 -18 5 -19 0 -27 -2 -17 -5z"/>
<path d="M4013 9854 c3 -3 48 -10 99 -14 51 -5 110 -13 132 -19 21 -5 34 -5
30 -1 -15 15 -150 40 -211 40 -31 0 -54 -3 -50 -6z"/>
<path d="M1603 9833 c-7 -2 -13 -8 -13 -13 0 -8 57 4 68 15 7 6 -39 5 -55 -2z"/>
<path d="M4310 9800 c8 -5 24 -10 35 -10 17 0 17 2 5 10 -8 5 -24 10 -35 10
-17 0 -17 -2 -5 -10z"/>
<path d="M1500 9789 c0 -5 5 -7 10 -4 6 3 10 8 10 11 0 2 -4 4 -10 4 -5 0 -10
-5 -10 -11z"/>
<path d="M4398 9768 c5 -5 16 -8 23 -6 8 3 3 7 -10 11 -17 4 -21 3 -13 -5z"/>
<path d="M1405 9754 c-35 -18 -54 -34 -39 -34 11 0 74 38 74 45 0 7 -2 7 -35
-11z"/>
<path d="M4465 9730 c3 -5 14 -10 24 -10 9 0 30 -13 46 -30 16 -16 33 -30 38
-30 5 0 38 -25 73 -55 35 -31 65 -51 69 -45 3 5 3 10 -2 10 -4 0 -30 20 -58
45 -75 68 -84 75 -93 75 -4 0 -23 11 -42 25 -34 25 -67 34 -55 15z"/>
<path d="M1290 9680 c0 -5 7 -7 15 -4 8 4 15 8 15 10 0 2 -7 4 -15 4 -8 0 -15
-4 -15 -10z"/>
<path d="M3647 9538 c-9 -208 -72 -324 -253 -469 -35 -28 -64 -55 -64 -60 0
-5 16 -27 36 -49 48 -53 146 -107 209 -115 47 -6 52 -5 82 27 67 70 123 235
123 362 0 120 -87 426 -121 426 -4 0 -9 -55 -12 -122z"/>
<path d="M1156 9568 c-43 -43 -76 -81 -73 -84 3 -3 44 33 92 80 47 47 80 85
73 85 -7 -1 -48 -37 -92 -81z"/>
<path d="M2050 9618 c-100 -155 -147 -416 -106 -590 15 -62 57 -145 92 -184
43 -45 154 -20 263 60 73 54 70 67 -42 178 -72 73 -102 111 -133 173 -54 106
-72 202 -56 296 7 38 12 74 12 79 0 17 -15 11 -30 -12z"/>
<path d="M4730 9522 c0 -5 7 -15 15 -22 17 -14 95 -129 95 -140 0 -4 6 -13 14
-19 7 -6 24 -39 37 -74 14 -37 24 -55 27 -44 5 23 -82 198 -116 234 -15 15
-31 37 -37 47 -11 21 -35 33 -35 18z"/>
<path d="M1001 9364 c-32 -51 -44 -97 -16 -60 8 11 15 26 15 33 0 7 4 13 8 13
10 0 35 51 28 57 -3 3 -18 -17 -35 -43z"/>
<path d="M2470 9276 c-96 -17 -112 -34 -68 -72 44 -39 107 -136 131 -201 14
-38 32 -115 41 -173 9 -58 21 -123 26 -145 5 -22 16 -80 25 -130 9 -49 20
-108 25 -130 5 -22 16 -76 25 -120 9 -44 23 -107 30 -140 18 -82 33 -169 41
-237 17 -151 24 -12 24 510 0 614 0 614 -55 703 -50 81 -129 151 -167 148 -7
0 -42 -6 -78 -13z"/>
<path d="M3092 9273 c-34 -24 -119 -135 -142 -184 -19 -42 -20 -68 -20 -632 0
-545 7 -688 24 -510 9 85 20 147 56 298 44 184 68 294 79 360 63 381 74 423
136 510 20 28 55 66 78 86 53 47 43 62 -52 78 -92 15 -131 13 -159 -6z"/>
<path d="M950 9255 c-6 -15 -8 -30 -6 -33 3 -3 10 8 16 23 6 15 8 30 6 33 -3
3 -10 -8 -16 -23z"/>
<path d="M4930 9158 c0 -9 7 -31 16 -49 l15 -34 -5 39 c-5 40 -26 75 -26 44z"/>
<path d="M907 9127 c-11 -29 -9 -43 4 -30 6 6 9 19 7 29 -3 18 -4 18 -11 1z"/>
<path d="M4965 7816 c0 -690 3 -1248 7 -1238 8 22 8 2439 0 2470 -4 13 -7
-542 -7 -1232z"/>
<path d="M888 9034 c-5 -4 -8 -41 -7 -83 1 -73 2 -74 10 -31 10 51 8 126 -3
114z"/>
<path d="M3849 8768 c-61 -123 -133 -234 -201 -309 -37 -42 -68 -79 -68 -83 0
-17 92 3 165 36 63 27 155 102 190 153 53 76 55 115 12 195 -19 36 -42 66 -51
68 -10 2 -25 -17 -47 -60z"/>
<path d="M1772 8808 c-18 -22 -62 -122 -62 -141 0 -53 87 -164 172 -218 57
-37 170 -79 211 -79 27 0 26 2 -43 82 -69 80 -115 148 -196 293 -39 70 -61 87
-82 63z"/>
<path d="M885 7770 c0 -569 1 -802 2 -517 2 284 2 750 0 1035 -1 284 -2 51 -2
-518z"/>
<path d="M1667 8373 c5 -32 11 -49 42 -114 11 -25 21 -51 21 -58 0 -6 4 -11 9
-11 5 0 13 -9 16 -21 5 -16 10 -18 18 -10 9 9 8 14 -3 21 -13 8 -12 11 5 25
20 15 20 15 -4 35 -19 16 -20 20 -6 20 20 0 75 -31 75 -42 0 -4 -4 -8 -9 -8
-7 0 -61 -84 -61 -96 0 -1 6 -9 13 -16 7 -7 20 -26 30 -41 10 -15 29 -33 43
-39 13 -6 24 -16 24 -23 0 -6 13 -23 29 -38 35 -30 146 -89 154 -80 3 3 27 -2
53 -11 53 -18 130 -21 139 -6 3 6 21 10 39 10 45 0 147 53 175 91 23 31 23 31
5 66 -11 19 -26 38 -34 41 -8 3 -22 11 -31 18 -8 8 -39 18 -69 24 -29 6 -77
21 -105 34 -28 12 -89 29 -135 36 -47 7 -93 20 -102 28 -25 21 -66 8 -74 -24
-6 -24 -8 -24 -23 -9 -15 15 -15 17 2 26 28 16 20 28 -40 57 -32 15 -78 41
-103 57 -25 16 -49 28 -53 27 -4 -1 -13 11 -18 28 -14 38 -28 39 -22 3z m253
-308 c0 -8 -2 -15 -4 -15 -2 0 -6 7 -10 15 -3 8 -1 15 4 15 6 0 10 -7 10 -15z
m475 -15 c-3 -5 -13 -6 -21 -3 -12 4 -13 8 -3 14 15 9 32 2 24 -11z m-190 -11
c5 -5 -6 -9 -28 -9 -26 0 -37 4 -37 15 0 12 7 14 28 9 15 -4 31 -11 37 -15z
m195 -58 c7 -14 7 -22 -1 -27 -12 -7 -29 12 -29 34 0 19 18 14 30 -7z m-410
-15 c0 -3 -4 -8 -10 -11 -5 -3 -10 -1 -10 4 0 6 5 11 10 11 6 0 10 -2 10 -4z
m139 -40 c9 -10 8 -15 -4 -20 -10 -4 -15 1 -15 14 0 24 4 25 19 6z m246 4 c-3
-5 -10 -10 -16 -10 -5 0 -9 5 -9 10 0 6 7 10 16 10 8 0 12 -4 9 -10z"/>
<path d="M3960 8343 c-64 -53 -209 -133 -242 -133 -9 0 -20 -4 -23 -10 -3 -5
-22 -10 -41 -10 -19 0 -34 -4 -34 -10 0 -5 -20 -10 -44 -10 -24 0 -60 -7 -79
-15 -20 -8 -47 -15 -60 -15 -14 0 -30 -7 -37 -15 -7 -8 -23 -15 -36 -15 -13 0
-24 -4 -24 -10 0 -5 -11 -10 -25 -10 -30 0 -105 -66 -105 -93 0 -23 69 -91
107 -104 146 -51 165 -53 306 -18 87 21 107 31 137 60 19 20 43 41 52 48 10 7
20 29 22 51 6 44 35 84 48 64 6 -10 8 -8 8 5 0 9 6 17 14 17 15 0 46 42 46 62
0 7 11 30 25 50 14 20 25 44 25 53 0 9 7 30 16 46 8 17 14 38 12 48 -2 14 -16
7 -68 -36z m-23 -97 c-4 -9 -11 -16 -17 -16 -11 0 -14 33 -3 44 11 10 26 -11
20 -28z m-47 -48 c0 -39 -13 -63 -28 -54 -8 5 -10 53 -3 84 1 1 8 2 16 2 10 0
15 -10 15 -32z m-440 -202 c0 -23 -15 -43 -35 -46 -18 -3 -23 35 -7 53 22 24
42 21 42 -7z m-89 -56 c10 0 19 -5 19 -11 0 -15 -63 -6 -68 10 -3 10 0 12 12
8 10 -4 26 -7 37 -7z m49 -30 c0 -5 -7 -10 -16 -10 -8 0 -12 5 -9 10 3 6 10
10 16 10 5 0 9 -4 9 -10z m105 -10 c-3 -5 -16 -10 -28 -10 -18 0 -19 2 -7 10
20 13 43 13 35 0z"/>
<path d="M1638 8024 c-16 -15 18 -222 53 -327 17 -52 56 -132 95 -198 30 -51
118 -119 154 -119 13 0 25 10 32 28 28 62 86 141 151 204 37 37 66 72 63 77
-3 4 -43 11 -88 13 -91 5 -160 32 -251 96 -42 30 -142 143 -187 211 -8 12 -18
19 -22 15z"/>
<path d="M3982 7939 c-39 -52 -92 -110 -119 -130 -79 -60 -179 -103 -247 -106
-119 -7 -127 -15 -70 -66 20 -18 43 -39 51 -47 59 -65 75 -87 103 -144 26 -52
38 -66 55 -66 27 0 89 44 134 96 42 47 117 203 131 270 28 132 48 270 40 278
-4 4 -40 -34 -78 -85z"/>
<path d="M2583 7601 c-63 -16 -128 -66 -277 -215 -162 -162 -176 -171 -302
-195 -180 -33 -339 23 -460 164 -43 50 -74 69 -74 46 0 -16 77 -125 122 -172
78 -83 208 -167 308 -200 59 -18 293 -20 312 -1 6 6 18 12 25 12 28 0 121 71
223 170 105 102 177 150 225 150 63 0 115 63 115 138 0 65 -127 125 -217 103z"/>
<path d="M3025 7600 c-37 -8 -88 -34 -109 -55 -10 -11 -16 -34 -16 -66 0 -64
35 -105 100 -118 82 -16 118 -40 247 -163 162 -154 211 -179 357 -186 73 -3
115 0 165 13 133 35 271 128 372 250 48 58 94 135 80 135 -4 0 -41 -32 -82
-70 -151 -143 -269 -182 -453 -149 -109 19 -158 51 -305 202 -175 178 -261
228 -356 207z"/>
<path d="M2994 7107 c-16 -20 -31 -27 -57 -27 -32 0 -35 -3 -41 -34 -8 -40 2
-75 15 -54 7 10 9 9 9 -3 0 -9 -6 -19 -14 -22 -12 -5 -14 -75 -15 -424 0 -230
3 -434 8 -453 l8 -35 7 30 c5 17 14 48 21 70 29 89 55 203 60 263 1 22 8 49
14 60 8 15 10 119 9 339 l-3 318 -21 -28z"/>
<path d="M2679 7003 c-1 -59 -2 -162 -3 -228 -3 -170 5 -295 18 -295 6 0 11
-20 12 -47 1 -27 11 -91 23 -143 13 -52 25 -106 27 -120 9 -46 27 -100 34
-100 4 0 6 141 6 313 -1 171 1 386 3 477 2 91 0 177 -4 192 -7 26 -9 27 -58
21 -44 -5 -50 -4 -44 10 3 9 2 19 -3 22 -6 4 -11 -36 -11 -102z m81 21 c0 -2
-9 -4 -21 -4 -11 0 -18 4 -14 10 5 8 35 3 35 -6z"/>
<path d="M2380 6929 c-78 -71 -139 -98 -242 -108 -23 -2 1 -42 84 -138 111
-129 223 -243 239 -243 8 0 9 18 3 68 -5 37 -9 158 -9 270 1 134 -3 202 -10
202 -5 -1 -35 -23 -65 -51z"/>
<path d="M3236 6933 c14 -78 11 -351 -5 -416 -21 -84 -5 -95 55 -37 95 93 276
310 272 327 -2 14 -16 19 -58 23 -66 7 -107 28 -169 85 -43 39 -81 65 -96 65
-4 0 -3 -21 1 -47z"/>
<path d="M887 6673 c-10 -9 -7 -84 3 -108 6 -14 9 1 9 48 1 67 0 73 -12 60z"/>
<path d="M900 6517 c0 -31 9 -57 20 -57 8 0 -4 67 -14 77 -3 4 -6 -5 -6 -20z"/>
<path d="M4947 6517 c-4 -10 -7 -28 -7 -40 1 -20 2 -20 11 -4 6 10 9 28 7 40
-3 20 -4 20 -11 4z"/>
<path d="M930 6421 c0 -20 45 -121 55 -121 4 0 -44 132 -51 139 -2 2 -4 -6 -4
-18z"/>
<path d="M4917 6427 c-11 -29 -9 -43 4 -30 6 6 9 19 7 29 -3 18 -4 18 -11 1z"/>
<path d="M4887 6343 c-4 -3 -7 -13 -7 -22 1 -13 3 -13 11 2 11 19 8 33 -4 20z"/>
<path d="M1004 6254 c3 -9 6 -19 6 -24 0 -4 7 -10 15 -14 14 -5 13 -2 0 24
-16 31 -32 42 -21 14z"/>
<path d="M4840 6257 c0 -7 -11 -28 -25 -47 -14 -19 -25 -41 -25 -49 0 -8 16 9
35 39 37 59 41 70 25 70 -5 0 -10 -6 -10 -13z"/>
<path d="M1040 6192 c0 -15 28 -47 35 -40 8 8 -13 48 -25 48 -6 0 -10 -4 -10
-8z"/>
<path d="M1095 6120 c10 -11 20 -18 23 -15 7 6 -18 35 -31 35 -5 0 -2 -9 8
-20z"/>
<path d="M4685 6049 c-44 -45 -71 -77 -60 -71 19 10 86 77 129 130 38 45 9 20
-69 -59z"/>
<path d="M1130 6080 c0 -5 9 -14 20 -20 22 -12 27 -1 8 18 -14 14 -28 16 -28
2z"/>
<path d="M1222 5994 c10 -10 20 -16 22 -13 3 3 -5 11 -17 18 -21 13 -21 12 -5
-5z"/>
<path d="M1274 5951 c4 -6 16 -16 28 -22 15 -8 18 -8 14 0 -4 6 -16 16 -28 22
-15 8 -18 8 -14 0z"/>
<path d="M4495 5904 c-49 -31 -79 -53 -65 -49 14 4 48 21 75 39 28 18 58 35
68 39 9 3 17 11 17 17 0 13 8 17 -95 -46z"/>
<path d="M1353 5895 c15 -14 35 -25 43 -25 24 0 16 9 -28 30 l-43 21 28 -26z"/>
<path d="M1460 5841 c0 -9 34 -21 60 -21 9 1 5 7 -10 15 -29 16 -50 19 -50 6z"/>
<path d="M4338 5823 c7 -3 16 -2 19 1 4 3 -2 6 -13 5 -11 0 -14 -3 -6 -6z"/>
<path d="M1555 5811 c3 -5 21 -15 40 -21 41 -14 70 -9 40 7 -29 15 -87 25 -80
14z"/>
<path d="M4238 5793 c7 -3 16 -2 19 1 4 3 -2 6 -13 5 -11 0 -14 -3 -6 -6z"/>
<path d="M1715 5770 c3 -5 25 -10 48 -10 31 0 38 3 27 10 -20 13 -83 13 -75 0z"/>
<path d="M2985 5770 l-1060 -5 1110 -2 c611 0 1121 3 1135 7 17 5 0 8 -50 7
-41 -1 -552 -4 -1135 -7z"/>
<path d="M6605 5021 c-3 -5 -2 -12 2 -14 9 -5 155 12 162 18 2 3 -32 5 -77 5
-44 0 -83 -4 -87 -9z"/>
<path d="M6788 5023 c6 -2 18 -2 25 0 6 3 1 5 -13 5 -14 0 -19 -2 -12 -5z"/>
<path d="M7048 5023 c116 -2 308 -2 425 0 116 1 21 2 -213 2 -234 0 -329 -1
-212 -2z"/>
<path d="M7803 5023 c53 -2 141 -2 195 0 53 1 9 3 -98 3 -107 0 -151 -2 -97
-3z"/>
<path d="M8178 5023 c39 -2 105 -2 145 0 39 1 7 3 -73 3 -80 0 -112 -2 -72 -3z"/>
<path d="M8557 5019 c8 -8 16 -8 30 0 16 9 14 10 -11 11 -22 0 -27 -3 -19 -11z"/>
<path d="M8788 5023 c28 -2 76 -2 105 0 28 2 5 3 -53 3 -58 0 -81 -1 -52 -3z"/>
<path d="M8970 5022 c8 -5 49 -12 90 -15 54 -4 68 -3 50 4 -34 14 -160 23
-140 11z"/>
<path d="M6510 5002 c-31 -5 -52 -22 -24 -21 31 2 70 14 59 20 -6 3 -21 3 -35
1z"/>
<path d="M9160 4990 c36 -12 62 -12 55 0 -3 6 -23 10 -43 9 -33 -1 -34 -2 -12
-9z"/>
<path d="M6380 4955 c-15 -8 -19 -14 -10 -14 18 -1 46 16 40 23 -3 2 -16 -2
-30 -9z"/>
<path d="M9260 4961 c8 -5 29 -11 45 -15 l30 -6 -25 15 c-14 8 -34 14 -45 14
-16 0 -17 -1 -5 -8z"/>
<path d="M6279 4910 l-24 -20 33 11 c17 6 32 15 32 20 0 15 -16 10 -41 -11z"/>
<path d="M9400 4905 c0 -2 15 -12 33 -21 17 -9 46 -27 62 -40 17 -13 43 -34
59 -46 16 -13 44 -35 61 -50 18 -16 38 -28 45 -28 6 0 -3 12 -22 28 -18 15
-35 31 -37 35 -3 7 -47 39 -100 72 -9 6 -27 17 -41 26 -28 18 -60 31 -60 24z"/>
<path d="M6165 4840 c-3 -5 -2 -10 4 -10 5 0 13 5 16 10 3 6 2 10 -4 10 -5 0
-13 -4 -16 -10z"/>
<path d="M8577 4698 c-3 -79 -11 -139 -22 -168 -46 -125 -124 -226 -237 -310
-73 -53 -74 -72 -13 -129 62 -57 157 -101 217 -101 45 0 50 3 78 41 96 134
134 328 94 497 -37 161 -84 292 -104 292 -4 0 -10 -55 -13 -122z"/>
<path d="M6075 4765 c-27 -24 -47 -47 -43 -50 4 -4 30 16 58 44 63 62 53 66
-15 6z"/>
<path d="M6946 4776 c-9 -14 -22 -37 -30 -49 -22 -37 -63 -164 -80 -251 -38
-186 -3 -365 90 -475 23 -27 44 -41 59 -41 40 0 152 45 209 85 85 58 84 68
-32 183 -106 106 -163 196 -188 301 -16 68 -18 162 -3 215 14 49 -2 70 -25 32z"/>
<path d="M5985 4675 c-17 -13 -27 -27 -23 -31 4 -4 20 5 34 20 35 34 27 42
-11 11z"/>
<path d="M9670 4692 c0 -5 13 -21 28 -38 16 -16 50 -64 77 -107 27 -43 51 -74
53 -67 5 13 -75 150 -88 150 -5 0 -16 13 -24 29 -14 27 -46 50 -46 33z"/>
<path d="M5880 4523 c-27 -44 -37 -73 -25 -73 5 0 43 69 57 103 13 32 -2 17
-32 -30z"/>
<path d="M9839 4433 c5 -17 14 -40 20 -50 9 -16 10 -15 11 8 0 15 -9 37 -20
50 l-19 24 8 -32z"/>
<path d="M8034 4440 c-33 -13 -132 -129 -162 -189 l-27 -56 -3 -495 c-3 -499
2 -705 19 -694 5 3 9 27 9 53 0 27 5 73 11 102 6 30 14 77 19 104 4 28 17 84
28 125 48 187 68 285 117 575 13 77 33 165 44 195 25 68 78 143 133 191 26 22
39 41 36 50 -10 25 -185 55 -224 39z"/>
<path d="M7351 4427 c-75 -16 -82 -33 -35 -82 90 -95 138 -198 163 -345 20
-125 43 -246 77 -410 84 -409 104 -520 104 -567 0 -18 5 -33 10 -33 6 0 10 60
11 158 0 86 2 318 4 515 3 198 0 400 -5 449 -12 117 -49 195 -130 272 -53 51
-62 56 -102 55 -24 0 -67 -6 -97 -12z"/>
<path d="M5827 4417 c-4 -10 -7 -26 -7 -35 1 -15 2 -15 11 1 6 10 9 25 7 35
-3 16 -4 15 -11 -1z"/>
<path d="M9890 4295 c0 -16 5 -37 10 -45 7 -12 10 -8 10 15 0 17 -5 37 -10 45
-7 12 -10 8 -10 -15z"/>
<path d="M5781 4263 c0 -25 1 -26 9 -8 12 27 12 35 0 35 -5 0 -10 -12 -9 -27z"/>
<path d="M9925 2992 c0 -659 -3 -1223 -7 -1254 -6 -55 3 -77 16 -42 9 23 7
2467 -2 2481 -4 6 -7 -527 -7 -1185z"/>
<path d="M5758 4168 c-3 -7 -2 -31 1 -53 l7 -40 5 43 c5 44 -4 75 -13 50z"/>
<path d="M5751 3974 c0 -11 3 -14 6 -6 3 7 2 16 -1 19 -3 4 -6 -2 -5 -13z"/>
<path d="M8813 3968 c-5 -7 -24 -41 -42 -75 -47 -93 -140 -245 -165 -269 -46
-45 -96 -104 -96 -114 0 -7 13 -9 38 -4 203 38 401 227 360 345 -14 42 -67
129 -78 129 -4 0 -12 -6 -17 -12z"/>
<path d="M6673 3962 c-14 -9 -73 -131 -73 -150 0 -33 47 -111 99 -161 57 -57
142 -105 236 -135 90 -29 95 -20 33 49 -67 73 -124 153 -170 238 -61 111 -96
167 -105 167 -5 0 -13 -4 -20 -8z"/>
<path d="M5755 2885 c0 -588 1 -828 2 -532 2 296 2 778 0 1070 -1 293 -2 51
-2 -538z"/>
<path d="M6558 3508 c2 -18 8 -37 12 -43 4 -5 10 -23 14 -40 4 -16 13 -33 19
-37 6 -3 12 -17 14 -30 2 -13 10 -28 18 -34 8 -6 15 -19 15 -28 0 -10 5 -14
10 -11 6 4 8 15 5 25 -4 12 1 22 12 29 17 10 16 12 -7 30 -36 28 -17 37 24 11
39 -24 44 -35 21 -44 -8 -3 -15 -11 -15 -18 0 -7 -9 -24 -19 -37 -24 -31 -19
-44 40 -104 27 -27 49 -52 51 -57 6 -16 89 -79 130 -98 120 -55 291 -50 403
12 28 15 58 39 69 53 16 22 17 30 6 62 -14 43 -70 76 -185 109 -38 11 -89 27
-112 36 -22 8 -71 18 -107 22 -36 4 -71 13 -77 20 -22 26 -79 14 -79 -17 0
-10 -7 -19 -15 -19 -8 0 -15 9 -15 20 0 12 7 20 16 20 33 0 5 25 -76 67 -46
24 -91 50 -101 59 -10 9 -22 13 -28 10 -6 -4 -17 9 -25 29 -19 44 -24 44 -18
3z m262 -315 c0 -14 -3 -13 -20 5 -11 12 -20 24 -20 27 0 3 9 1 20 -5 11 -6
20 -18 20 -27z m480 -9 c0 -17 -22 -14 -28 4 -2 7 3 12 12 12 9 0 16 -7 16
-16z m-195 -15 c5 -5 -8 -9 -33 -9 -33 0 -40 3 -36 15 6 15 49 12 69 -6z m195
-58 c13 -26 13 -31 -4 -31 -13 0 -26 20 -26 41 0 16 19 10 30 -10z m-415 -21
c3 -5 1 -10 -4 -10 -6 0 -11 5 -11 10 0 6 2 10 4 10 3 0 8 -4 11 -10z m400
-30 c-3 -5 -13 -10 -21 -10 -8 0 -14 5 -14 10 0 6 9 10 21 10 11 0 17 -4 14
-10z m-255 -15 c0 -8 -4 -15 -8 -15 -5 0 -9 7 -9 15 0 8 4 15 9 15 4 0 8 -7 8
-15z"/>
<path d="M8940 3515 c-36 -38 -169 -125 -201 -132 -15 -3 -30 -11 -33 -19 -3
-8 -16 -14 -28 -14 -13 -1 -34 -7 -48 -15 -14 -8 -37 -14 -52 -15 -15 0 -30
-4 -33 -10 -3 -5 -26 -10 -51 -10 -25 0 -61 -7 -81 -15 -19 -8 -46 -15 -59
-15 -13 0 -24 -4 -24 -9 0 -5 -16 -12 -35 -15 -19 -4 -35 -11 -35 -15 0 -5
-13 -11 -29 -14 -36 -7 -101 -65 -101 -90 0 -28 71 -95 118 -111 23 -8 42 -13
42 -10 0 2 14 -3 32 -12 25 -13 49 -15 112 -11 126 8 203 33 258 84 26 24 52
43 57 43 5 0 13 20 16 44 4 25 17 55 28 67 l21 23 7 -25 7 -24 1 26 c1 15 7
29 15 32 27 10 133 251 124 279 -2 5 -15 -3 -28 -17z m-70 -124 c0 -22 -16
-36 -24 -22 -8 12 3 41 15 41 5 0 9 -9 9 -19z m-47 -43 c6 -18 -4 -78 -13 -78
-14 0 -30 28 -25 44 3 9 7 23 10 31 5 18 21 20 28 3z m-454 -250 c-6 -12 -17
-17 -26 -14 -8 3 -17 6 -19 6 -11 0 -2 30 13 45 16 16 17 16 29 0 10 -13 10
-23 3 -37z m276 -8 c3 -5 1 -10 -4 -10 -6 0 -11 5 -11 10 0 6 2 10 4 10 3 0 8
-4 11 -10z m-345 -30 c0 -5 9 -12 20 -15 11 -4 18 -11 14 -16 -4 -6 -13 -4
-23 5 -10 9 -32 16 -49 16 -29 0 -40 9 -27 22 8 7 65 -3 65 -12z m150 -30 c0
-5 -11 -10 -24 -10 -14 0 -28 5 -31 10 -4 6 7 10 24 10 17 0 31 -4 31 -10z"/>
<path d="M6525 3150 c-15 -24 12 -177 57 -322 42 -136 105 -239 181 -295 33
-24 67 -42 76 -41 9 2 24 20 33 40 33 69 115 178 160 212 48 37 66 64 45 71
-6 2 -45 6 -86 9 -123 9 -269 90 -348 193 -20 26 -52 68 -71 93 -19 25 -36 46
-37 48 -2 2 -6 -2 -10 -8z"/>
<path d="M8921 3069 c-85 -109 -121 -141 -205 -187 -73 -39 -152 -62 -218 -62
-62 0 -75 -22 -32 -58 86 -72 113 -104 160 -191 47 -86 56 -89 124 -46 76 48
161 187 199 325 26 94 53 252 49 287 -3 25 -9 19 -77 -68z"/>
<path d="M7478 2716 c-77 -28 -131 -71 -258 -205 -170 -179 -205 -198 -410
-217 -129 -12 -264 52 -392 189 -98 104 -83 39 21 -90 103 -129 244 -224 384
-259 68 -18 256 -16 292 3 11 5 42 20 68 33 28 14 97 70 168 139 122 117 203
171 259 171 80 0 135 134 78 187 -56 51 -147 72 -210 49z"/>
<path d="M7938 2720 c-44 -8 -115 -55 -123 -81 -4 -10 -3 -39 1 -64 7 -50 49
-95 87 -95 64 0 121 -36 251 -158 174 -163 235 -195 380 -200 208 -8 394 83
542 264 52 64 102 144 88 144 -3 0 -43 -34 -87 -76 -159 -148 -270 -185 -451
-153 -126 22 -181 61 -376 263 -123 127 -216 173 -312 156z"/>
<path d="M7907 2216 c-14 -15 -37 -26 -57 -28 l-35 -3 -3 -523 c-1 -353 1
-521 8 -517 5 3 10 18 10 33 0 15 6 39 14 54 8 14 22 61 31 105 9 43 21 88 26
101 5 13 9 47 9 75 0 29 6 59 13 65 9 10 12 92 13 337 1 179 -1 325 -3 325 -2
0 -14 -11 -26 -24z m8 -96 c3 -5 1 -10 -4 -10 -6 0 -11 5 -11 10 0 6 2 10 4
10 3 0 8 -4 11 -10z m-83 -42 c-9 -9 -12 -7 -12 12 0 19 3 21 12 12 9 -9 9
-15 0 -24z"/>
<path d="M7590 2228 c-1 -2 -2 -146 -3 -321 -1 -283 1 -320 15 -328 10 -5 15
-20 13 -39 -1 -17 6 -65 16 -108 11 -42 19 -90 19 -105 0 -16 4 -26 10 -22 6
4 10 -9 10 -33 0 -39 16 -99 31 -116 4 -4 8 178 8 405 0 227 3 448 7 491 4 52
3 87 -5 107 -12 26 -15 28 -57 23 -39 -4 -44 -2 -44 16 0 16 -18 43 -20 30z
m80 -93 c0 -2 -7 -5 -15 -9 -9 -3 -15 0 -15 9 0 9 6 12 15 9 8 -4 15 -7 15 -9z"/>
<path d="M7283 2037 c-72 -64 -139 -99 -204 -105 -35 -3 -49 -9 -49 -20 0 -12
45 -75 85 -118 5 -6 39 -44 75 -84 114 -129 173 -181 187 -166 4 3 1 29 -6 56
-14 55 -19 378 -7 448 11 58 -6 56 -81 -11z"/>
<path d="M8154 2058 c15 -68 18 -324 6 -394 -25 -141 -19 -146 66 -64 80 78
264 295 264 313 0 10 -16 16 -54 20 -64 6 -123 35 -179 86 -48 43 -87 71 -100
71 -5 0 -6 -15 -3 -32z"/>
<path d="M5757 1767 c-11 -30 -8 -72 8 -93 14 -18 14 -18 14 6 0 14 -3 43 -7
65 -6 30 -9 36 -15 22z"/>
<path d="M5781 1603 c-1 -23 4 -45 9 -48 12 -7 12 29 0 65 -7 21 -8 19 -9 -17z"/>
<path d="M9901 1620 c-1 -8 -4 -26 -7 -40 -5 -19 -4 -22 5 -14 7 6 11 24 8 40
-2 16 -5 22 -6 14z"/>
<path d="M5810 1510 c0 -23 50 -124 58 -116 2 3 -2 16 -11 29 -9 13 -19 41
-22 61 -8 40 -25 59 -25 26z"/>
<path d="M9840 1430 c-6 -11 -8 -20 -6 -20 3 0 10 9 16 20 6 11 8 20 6 20 -3
0 -10 -9 -16 -20z"/>
<path d="M9782 1325 c-44 -68 -60 -114 -17 -51 14 20 25 39 25 42 0 3 10 18
22 34 12 16 19 32 17 34 -3 3 -24 -24 -47 -59z"/>
<path d="M5880 1350 c0 -24 107 -166 118 -155 4 4 -24 44 -62 87 -8 9 -22 31
-31 47 -16 31 -25 39 -25 21z"/>
<path d="M9640 1145 c-41 -41 -70 -75 -64 -75 9 0 106 95 133 133 26 34 4 16
-69 -58z"/>
<path d="M6010 1171 c0 -13 29 -35 37 -28 7 8 -15 37 -28 37 -5 0 -9 -4 -9 -9z"/>
<path d="M6090 1101 c0 -10 29 -36 34 -30 1 2 -6 12 -16 22 -10 9 -18 13 -18
8z"/>
<path d="M6155 1040 c9 -15 45 -32 45 -22 0 5 -12 14 -26 20 -14 7 -23 8 -19
2z"/>
<path d="M9455 1000 c-44 -28 -73 -50 -65 -50 9 0 38 15 66 33 28 19 58 36 67
40 9 3 17 11 17 17 0 13 5 16 -85 -40z"/>
<path d="M6220 995 c16 -19 70 -49 77 -42 5 6 -44 41 -71 51 -16 6 -17 4 -6
-9z"/>
<path d="M6346 931 c-7 -11 17 -21 47 -21 21 1 21 1 -3 15 -30 17 -37 18 -44
6z"/>
<path d="M9295 920 l-20 -9 20 0 c11 0 27 4 35 9 13 9 13 10 0 9 -8 0 -24 -4
-35 -9z"/>
<path d="M6464 885 c11 -8 34 -15 50 -14 l31 1 -30 13 c-16 8 -39 14 -50 14
-20 0 -20 0 -1 -14z"/>
<path d="M9165 880 c-18 -8 -18 -9 5 -9 14 0 32 4 40 9 12 8 12 10 -5 9 -11 0
-29 -4 -40 -9z"/>
<path d="M9036 863 c-4 -5 -508 -10 -1119 -13 l-1112 -6 1145 1 c883 0 1150 3
1165 12 18 11 15 12 -26 13 -25 0 -49 -3 -53 -7z"/>
<path d="M6615 850 c3 -5 27 -10 53 -9 35 0 42 3 27 9 -28 12 -88 12 -80 0z"/>
</g>
</svg>
